<?xml version="1.0" encoding="iso-8859-1"?>
<!-- Uploaded to: SVG Repo, www.svgrepo.com, Generator: SVG Repo Mixer Tools -->
<svg version="1.1" id="Layer_1" xmlns="http://www.w3.org/2000/svg" xmlns:xlink="http://www.w3.org/1999/xlink" 
	 viewBox="0 0 504.808 504.808" xml:space="preserve">
<rect x="380.184" y="428.404" style="fill:#16C12E;" width="16" height="40"/>
<polyline style="fill:#08A017;" points="396.184,428.404 396.184,468.404 380.184,468.404 "/>
<polygon style="fill:#414344;" points="504.368,156.756 400.384,52.772 399.472,51.852 399.568,51.956 399.472,51.852 
	399.416,51.588 310.8,20.404 193.568,20.404 104.96,51.588 104.896,51.7 104.808,51.876 104.808,51.876 103.976,52.756 0,156.748 
	77.68,235.308 116.184,195.916 116.184,484.404 388.184,484.404 388.184,195.916 426.688,235.316 "/>
<polygon style="fill:#2A2C2D;" points="504.368,156.756 400.384,52.772 399.568,51.956 399.568,51.956 399.472,51.852 
	399.416,51.588 310.8,20.404 193.568,20.404 104.96,51.588 104.896,51.7 104.808,51.876 104.808,51.876 103.976,52.756 
	24.496,181.236 77.68,235.308 116.184,195.916 116.184,484.404 388.184,484.404 388.184,195.916 426.688,235.316 "/>
<polyline style="fill:#191B1C;" points="196.184,484.404 388.184,484.404 388.184,195.916 426.688,235.316 504.808,156.756 
	399.496,51.852 399.496,51.852 399.624,51.956 399.496,51.852 399.432,51.588 310.8,20.404 196.184,20.404 "/>
<polyline points="386.424,195.916 425.816,235.316 504.368,156.756 400.384,52.772 399.568,51.956 399.568,51.956 399.472,51.852 
	399.416,51.9 "/>
<path style="fill:#96A2A3;" d="M310.8,20.404H193.568l-14.216,5.264c7.936,30.272,37.496,52.952,72.832,52.952
	s64.896-22.752,72.832-53.024L310.8,20.404z"/>
<path style="fill:#768284;" d="M310.8,20.404H193.568l-14.216,5.264c7.936,30.272,37.496,47.704,72.832,47.704
	s64.896-17.504,72.832-47.776L310.8,20.404z"/>
<path style="fill:#535859;" d="M310.8,20.404H193.568l-6.936,2.736c12.768,23.296,37.288,42.976,65.552,42.976
	c28.256,0,52.792-19.76,65.552-43.056L310.8,20.404z"/>
<path style="fill:#474B4C;" d="M253.496,65.964c28.256,0,52.136-19.688,64.896-42.984l-7.592-2.576H196.184"/>
<rect x="228.184" y="28.404" style="fill:#535859;" width="48" height="16"/>
<path style="fill:#844C0F;" d="M277.36,230.7c-12.016-25.64-12.672-43.736-4.768-47.448c7.936-3.712,21.408,8.376,33.416,34.008
	c12.016,25.64,15.352,49.448,7.44,53.144C305.528,274.116,289.376,256.34,277.36,230.7z"/>
<ellipse transform="matrix(0.4798 -0.8774 0.8774 0.4798 30.9484 343.8718)" style="fill:#C67812;" cx="305.461" cy="145.837" rx="12.616" ry="7.184"/>
<path style="fill:#844C0F;" d="M170.616,294.324c-3.68-24.576,7.664-18.688,18.616-20.328c10.984-1.64,22.032,11.528,25.68,36.096
	c3.696,24.592-2.232,45.84-13.232,47.504C190.728,359.212,174.272,318.916,170.616,294.324z"/>
<path style="fill:#E29524;" d="M324.368,169.012c0,16.752-16.128,35.408-32.872,35.408c-16.76,0-45.96-11.064-45.96-27.832
	c0-16.752,26.672-37.928,43.432-37.928C305.712,138.66,324.368,152.252,324.368,169.012z"/>
<g>
	<path style="fill:#C67812;" d="M288.96,138.66c16.752,0,35.408,13.592,35.408,30.352c0,16.752-16.128,35.408-32.872,35.408"/>
	<path style="fill:#C67812;" d="M331.536,178.716c0,10.232-21.256,24.44-34.152,24.44s-16.456-14.2-16.456-24.44
		c0-10.248,10.472-18.544,23.368-18.544C317.184,160.164,331.536,168.46,331.536,178.716z"/>
</g>
<path style="fill:#E29524;" d="M272.472,272.508c-27.336,36.536-56.352,50.672-81.744,38.984
	c-34.36-15.808-26.608-63.064,0.744-99.6c27.336-36.536,67.64-52.584,90-35.84C303.84,192.772,299.824,235.98,272.472,272.508z"/>
<g>
	<path style="fill:#C67812;" d="M281.752,242.996c-27.352,36.536-56.36,50.672-81.744,38.984
		c-18.928-8.688-25.008-26.936-22.168-47.656c-15.112,31.44-14.736,64.472,12.88,77.168c25.392,11.688,54.408-2.448,81.744-38.984
		c12.592-16.816,20.176-35.024,22.568-51.44C291.512,228.476,287.096,235.86,281.752,242.996z"/>
	<rect x="220.184" y="180.404" style="fill:#C67812;" width="48" height="72"/>
	<path style="fill:#C67812;" d="M281.472,176.052c22.368,16.728,18.352,59.928-9,96.464c-27.336,36.536-56.352,50.672-81.744,38.984
		"/>
</g>
<path style="fill:#E5C683;" d="M272.36,258.804c-15.672,22.68-31.328,32.936-44.072,28.44c-17.232-6.08-11.328-33.184,4.32-55.872
	c15.672-22.696,30.2-24.832,41.168-17.24C284.752,221.708,288.016,236.116,272.36,258.804z"/>
<path style="fill:#CCAD6E;" d="M273.784,214.124c10.968,7.576,14.232,21.992-1.424,44.68c-15.672,22.68-31.328,32.936-44.072,28.44"
	/>
<path style="fill:#E29524;" d="M222.48,316.572c-25.064-8.128-36.384-23.48-32.168-36.52s-33.736-53.288,47.456-10.696
	c23.328,12.232,41.96,25.28,37.736,38.312C271.264,320.716,247.528,324.692,222.48,316.572z"/>
<path style="fill:#C67812;" d="M275.504,307.668c-4.232,13.048-34,16.168-59.048,8.048c-25.064-8.128-31.216-27.632-26.984-40.68"/>
<path style="fill:#535859;" d="M219.608,350.068c-19.2,0-34.784,15.568-34.784,34.784s15.576,34.784,34.784,34.784
	s34.776-15.568,34.776-34.784S238.816,350.068,219.608,350.068z M219.608,406.356c-11.872,0-21.504-9.624-21.504-21.504
	s9.632-21.504,21.504-21.504c11.88,0,21.504,9.624,21.504,21.504S231.496,406.356,219.608,406.356z"/>
<path style="fill:#C67812;" d="M235.672,303.836c10.176-15.968,23.768-20.536,33.128-14.576c9.344,5.984,10.928,20.216,0.736,36.184
	c-10.184,15.968-26.024,24.08-35.392,18.112C224.808,337.588,225.472,319.796,235.672,303.836z"/>
<g>
	<path style="fill:#E29524;" d="M235.408,155.74c26.328,10.416,39.224,23.152,36.008,31.272c-3.224,8.128,2.936,24.888-47.648-1.84
		c-25.032-13.248-45.08-25.472-41.84-33.584C185.136,143.444,209.072,145.308,235.408,155.74z"/>
	
		<ellipse transform="matrix(0.4798 -0.8774 0.8774 0.4798 28.9815 327.2612)" style="fill:#E29524;" cx="290.469" cy="139.191" rx="14.544" ry="8.272"/>
</g>
<path style="fill:#C67812;" d="M297.464,126.412c4.016,2.2,4.152,9.688,0.288,16.736c-3.84,7.048-10.208,10.984-14.224,8.8"/>
<circle style="fill:#00233F;" cx="308.184" cy="163.716" r="3.536"/>
<circle style="fill:#0A3856;" cx="307.544" cy="162.612" r="1.984"/>
<path style="fill:#032B27;" d="M336.528,172.412c0,4.432-3.592,7.992-8.032,7.992h-2.168c-4.456,0-8.048-3.56-8.048-7.992l0,0
	c0-4.44,3.592-8.008,8.048-8.008h2.168C332.936,164.404,336.528,167.972,336.528,172.412L336.528,172.412z"/>
<path style="fill:#1D4F49;" d="M329.432,170.492c0,2.288-1.832,4.144-4.128,4.144H324.2c-2.28,0-4.128-1.848-4.128-4.144l0,0
	c0-2.28,1.84-4.128,4.128-4.128h1.104C327.6,166.372,329.432,168.212,329.432,170.492L329.432,170.492z"/>
<path style="fill:#0E91AF;" d="M220.184,376.62c0,2.096-1.696,3.784-3.792,3.784h-0.424c-2.088,0-3.784-1.688-3.784-3.784v-56.44
	c0-2.088,1.696-3.776,3.792-3.776h0.424c2.088,0,3.784,1.688,3.784,3.784V376.62z"/>
<path style="fill:#006272;" d="M214.2,321.604c0-2.096,0.904-3.16,3-3.16l0,0c2.096,0,2.984,2.344,2.984,4.44v49.52"/>
<path style="fill:#6DB52D;" d="M232.144,315.668c0,5.16-6.792,9.328-15.168,9.328c-8.384,0-10.12-4.168-10.12-9.328
	c0-5.152,1.736-9.328,10.12-9.328C225.352,306.34,232.144,310.516,232.144,315.668z"/>
<path style="fill:#58A013;" d="M232.144,315.668c0,5.16-6.792,9.328-15.168,9.328c-8.384,0-10.12-4.168-10.12-9.328"/>
<g>
	<ellipse style="fill:#844C0F;" cx="182.512" cy="148.132" rx="3.584" ry="1.904"/>
	<ellipse style="fill:#844C0F;" cx="180.424" cy="154.044" rx="3.584" ry="1.888"/>
	<ellipse style="fill:#844C0F;" cx="183.144" cy="159.732" rx="3.592" ry="1.904"/>
</g>
<g>
	
		<ellipse transform="matrix(0.8789 -0.477 0.477 0.8789 -88.6148 184.2048)" style="fill:#E29524;" cx="318.483" cy="266.629" rx="1.888" ry="3.584"/>
	
		<ellipse transform="matrix(0.8793 -0.4762 0.4762 0.8793 -91.425 182.494)" style="fill:#E29524;" cx="314.383" cy="271.646" rx="1.888" ry="3.584"/>
	
		<ellipse transform="matrix(0.8788 -0.4773 0.4773 0.8788 -92.3946 179.9762)" style="fill:#E29524;" cx="308.033" cy="271.84" rx="1.4" ry="4.128"/>
	<ellipse style="fill:#E29524;" cx="255.016" cy="300.884" rx="14.544" ry="18.456"/>
</g>
<circle style="fill:#F2CF3B;" cx="276.344" cy="210.54" r="10.96"/>
<path style="fill:#EFB83C;" d="M284.064,202.772c4.28,4.28,4.28,11.232,0,15.504c-4.288,4.288-11.224,4.272-15.504,0"/>
</svg>