<?xml version="1.0" encoding="iso-8859-1"?>
<!-- Uploaded to: SVG Repo, www.svgrepo.com, Generator: SVG Repo Mixer Tools -->
<svg version="1.1" id="Layer_1" xmlns="http://www.w3.org/2000/svg" xmlns:xlink="http://www.w3.org/1999/xlink" 
	 viewBox="0 0 496 496" xml:space="preserve">
<polygon style="fill:#CCC07A;" points="280.8,8 248.008,40.792 215.208,8 200,8 200,168 296,168 296,8 "/>
<polygon style="fill:#E2D78D;" points="280.8,10.096 248.008,42.88 215.208,10.096 235.536,47.888 196.208,168 299.792,168 
	260.472,47.888 "/>
<rect x="200" y="80" style="fill:#CCC07A;" width="96" height="80"/>
<rect x="192" y="168" style="fill:#CC6297;" width="112" height="16"/>
<rect x="208" y="168" style="fill:#B54783;" width="80" height="16"/>
<polygon style="fill:#BC5F46;" points="397.928,496 98.064,496 190.336,200 305.68,200 "/>
<polygon style="fill:#AA4730;" points="335,496 161,496 190.336,200 305.68,200 "/>
<polygon style="fill:#993926;" points="287.8,496 208.216,496 190.336,200 305.68,200 "/>
<path style="fill:#37B588;" d="M224,39.384C216,29.464,204.792,16,203.64,0h-45.472l0.104,1.248L76,256.6l26.832,5.48L182.6,98.168
	L196.32,152H224V39.384z"/>
<path style="fill:#27A072;" d="M76,257.008l26.832,5.272L182.6,98.264L196.32,152H224V39.384c-8-9.92-20.576-26.28-20.36-39.384
	l-38.2,17.368"/>
<polyline style="fill:#1F895D;" points="76,257.008 102.232,262.44 182.304,90.488 196.32,152 224,152 224,40 "/>
<path style="fill:#37B588;" d="M337.728,1.28L337.84,0h-45.48C291.208,16,280,29.456,272,39.376V152h27.664l13.72-53.736
	l79.784,163.424L420,256.304L337.728,1.28z"/>
<path style="fill:#27A072;" d="M329.976,17.368L292.36,0C292.104,13.36,280,29.456,272,39.376V152h27.664l13.72-53.736
	l79.784,163.424L420,256.712"/>
<polyline style="fill:#1F895D;" points="272,40 272,152 299.664,152 313.384,90.408 393.168,261.688 420,256.304 "/>
<g>
	<circle style="fill:#FF9B8A;" cx="214.336" cy="56" r="3.608"/>
	<circle style="fill:#FF9B8A;" cx="214.336" cy="75.664" r="3.608"/>
	<circle style="fill:#FF9B8A;" cx="214.336" cy="95.32" r="3.608"/>
	<circle style="fill:#FF9B8A;" cx="214.336" cy="114.992" r="3.608"/>
	<circle style="fill:#FF9B8A;" cx="214.336" cy="134.664" r="3.608"/>
</g>
<g>
	<circle style="fill:#BC5F46;" cx="209.68" cy="218.576" r="2.464"/>
	<circle style="fill:#BC5F46;" cx="222.424" cy="218.576" r="2.44"/>
	<path style="fill:#BC5F46;" d="M237.664,218.576c0,1.368-1.088,2.464-2.432,2.464c-1.384,0-2.48-1.096-2.48-2.464
		c0-1.352,1.096-2.456,2.48-2.456C236.576,216.128,237.664,217.224,237.664,218.576z"/>
	<circle style="fill:#BC5F46;" cx="248" cy="218.576" r="2.464"/>
	<path style="fill:#BC5F46;" d="M263.232,218.576c0,1.368-1.08,2.464-2.432,2.464c-1.376,0-2.48-1.096-2.48-2.464
		c0-1.352,1.096-2.456,2.48-2.456C262.152,216.128,263.232,217.224,263.232,218.576z"/>
	<circle style="fill:#BC5F46;" cx="273.6" cy="218.576" r="2.456"/>
	<circle style="fill:#BC5F46;" cx="286.352" cy="218.576" r="2.456"/>
</g>
<path style="fill:#993926;" d="M312,195.8c0,4.344-7.032,4.2-11.392,4.2H195.384c-4.352,0-11.384,0.144-11.384-4.2v-7.856
	c0-4.36,7.032-3.944,11.384-3.944H300.6c4.368,0,11.4-0.416,11.4,3.936V195.8z"/>
</svg>